Coordinates
version=1
nRows=17
nColumns=40
inDegrees=yes

Units are S.I. units (second, meters, Newtons, ...)
Angles are in degrees.

endheader
time	pelvis_tilt	pelvis_list	pelvis_rotation	pelvis_tx	pelvis_ty	pelvis_tz	hip_flexion_r	hip_adduction_r	hip_rotation_r	knee_angle_r	knee_angle_r_beta	ankle_angle_r	subtalar_angle_r	mtp_angle_r	hip_flexion_l	hip_adduction_l	hip_rotation_l	knee_angle_l	knee_angle_l_beta	ankle_angle_l	subtalar_angle_l	mtp_angle_l	lumbar_extension	lumbar_bending	lumbar_rotation	arm_flex_r	arm_add_r	arm_rot_r	elbow_flex_r	pro_sup_r	wrist_flex_r	wrist_dev_r	arm_flex_l	arm_add_l	arm_rot_l	elbow_flex_l	pro_sup_l	wrist_flex_l	wrist_dev_l
      0.70000000	     -4.22903342	     -1.93631540	     -0.26151350	     -0.86215499	      0.88593788	     -1.42380115	     -2.74086452	      3.62559594	    -14.96906778	    -19.48785018	     -0.34012715	     13.32363919	      8.98784659	     -7.06457363	     34.06384924	      6.17506881	     18.61523561	    -23.73651643	     -0.41428036	      4.99422890	      5.06275546	      6.98073656	     -3.01220462	      1.79644489	      4.17707959	      5.76898939	    -11.68496720	    -10.69742687	     47.57468448	     89.95437384	      0.00000000	      0.00000000	    -11.04598990	      5.58610591	     13.76825029	     21.04094368	     89.95437384	      0.00000000	      0.00000000
      0.71000000	     -4.37226727	     -2.00461375	     -0.35553923	     -0.85235972	      0.88477472	     -1.42436958	     -3.06692290	      3.58689936	    -14.78663817	    -19.90373857	     -0.34738577	     13.08877344	      8.76791474	     -6.97018826	     34.50097747	      6.08552892	     18.49151633	    -23.61630147	     -0.41218222	      4.92933335	      4.86839985	      6.83434023	     -2.81941968	      1.75587383	      4.19482628	      5.70485978	    -11.69402621	    -10.62315386	     47.67628898	     89.95437384	      0.00000000	      0.00000000	    -11.32951331	      5.56183967	     13.71867376	     21.10882366	     89.95437384	      0.00000000	      0.00000000
      0.72000000	     -4.60449430	     -2.04937395	     -0.74358676	     -0.84248997	      0.88373431	     -1.42473533	     -3.29403331	      3.49638728	    -14.27025568	    -20.25299086	     -0.35348137	     12.96666793	      8.77750504	     -6.98035556	     34.61412111	      6.03800855	     18.39860585	    -23.07998325	     -0.40282170	      4.94582965	      4.27260213	      6.56755677	     -2.50943376	      1.70378781	      4.51311153	      5.72599086	    -11.79330830	    -10.42761395	     47.42140826	     89.95437384	      0.00000000	      0.00000000	    -11.39967747	      5.48870668	     13.68024188	     20.79823201	     89.95437384	      0.00000000	      0.00000000
      0.73000000	     -4.72578054	     -2.04032430	     -0.93492346	     -0.83204127	      0.88261530	     -1.42528320	     -3.61641302	      3.32329087	    -13.97993184	    -20.80037090	     -0.36303496	     12.62468430	      8.50425234	     -6.85186209	     34.78774919	      5.89802907	     18.01729729	    -23.34295180	     -0.40741137	      4.74327020	      4.10744370	      6.41540215	     -2.26698369	      1.56686431	      4.60591116	      5.50493269	    -11.75645884	    -10.34860646	     47.48008436	     89.95437384	      0.00000000	      0.00000000	    -11.71448022	      5.48084693	     13.65419839	     20.97142366	     89.95437384	      0.00000000	      0.00000000
      0.74000000	     -4.82483030	     -2.03145315	     -1.20033327	     -0.82115758	      0.88159618	     -1.42566306	     -3.96176401	      3.14076414	    -13.61197814	    -21.36478975	     -0.37288593	     12.29170128	      8.27290654	     -6.73375805	     34.77866297	      5.79260622	     17.56690726	    -23.70059608	     -0.41365344	      4.58319440	      3.99880431	      6.26038438	     -1.99091298	      1.41389604	      4.77283259	      5.22625482	    -11.72730246	    -10.26050669	     47.38486786	     89.95437384	      0.00000000	      0.00000000	    -12.01088319	      5.52544748	     13.64110671	     21.09401688	     89.95437384	      0.00000000	      0.00000000
      0.75000000	     -4.50334472	     -1.98466435	     -2.02974583	     -0.81037057	      0.88145947	     -1.42534295	     -4.70955133	      2.91652383	    -12.18771535	    -21.92641314	     -0.38268810	     12.06268182	      8.60503496	     -6.79164603	     34.14632641	      5.87923365	     17.19035242	    -24.31639404	     -0.42440114	      5.04450442	      4.71096344	      6.01934185	     -2.21831178	      1.20217432	      5.47109305	      5.39507470	    -11.67157154	    -10.17463516	     46.53620002	     89.95437384	      0.00000000	      0.00000000	    -11.85911379	      5.49796149	     13.71301378	     20.59898621	     89.95437384	      0.00000000	      0.00000000
      0.76000000	     -4.34271566	     -1.92459983	     -2.58987609	     -0.79904598	      0.88086793	     -1.42543768	     -5.33770314	      2.68413945	    -11.13605722	    -22.44606406	     -0.39175772	     11.58641392	      8.42924010	     -6.79204548	     33.65119750	      5.69288238	     16.31676873	    -25.03978853	     -0.43702675	      5.20936041	      6.25427384	      5.78019340	     -2.21652046	      0.98114478	      5.92691115	      5.09837419	    -11.61364926	    -10.17721335	     46.33342714	     89.95437384	      0.00000000	      0.00000000	    -12.01723631	      5.48561311	     14.06220161	     20.72594439	     89.95437384	      0.00000000	      0.00000000
      0.77000000	     -4.43105145	     -1.80769660	     -2.76906571	     -0.78799358	      0.87992253	     -1.42632242	     -5.52597133	      2.39010485	    -10.43890001	    -23.23692094	     -0.40556078	     10.96072640	      7.60628747	     -6.91877924	     33.35872162	      4.93716132	     14.25728220	    -25.53754543	     -0.44571425	      5.11510723	      8.91136412	      5.32031324	     -1.93396396	      0.72051724	      5.91946508	      4.83911822	    -11.52413770	    -10.11885361	     45.93189825	     89.95437384	      0.00000000	      0.00000000	    -12.18099490	      5.49011318	     14.40824102	     20.83936514	     89.95437384	      0.00000000	      0.00000000
      0.78000000	     -4.56366784	     -1.83530014	     -2.90484064	     -0.77601519	      0.87870287	     -1.42702567	     -5.77765180	      2.22682724	    -10.08453843	    -23.95117106	     -0.41802679	     10.51802485	      7.33421111	     -6.76046867	     33.08747014	      4.74530896	     13.77662228	    -26.11210639	     -0.45574223	      4.72915813	      8.63813893	      5.20958236	     -1.48355886	      0.61305274	      5.89178136	      4.24711017	    -11.45115324	    -10.05327665	     45.81784625	     89.95437384	      0.00000000	      0.00000000	    -12.51647533	      5.57395803	     14.38696974	     21.13456736	     89.95437384	      0.00000000	      0.00000000
      0.79000000	     -4.46230841	     -1.92489162	     -3.33922956	     -0.76520746	      0.87819228	     -1.42710952	     -5.92866786	      2.16597361	     -8.99788046	    -25.13903042	     -0.43875885	      9.56253507	      7.11304301	     -6.60617741	     32.92457991	      4.87347989	     13.49336916	    -27.03882045	     -0.47191644	      3.22945880	      9.71018328	      5.33942507	     -1.46993478	      0.50775007	      6.06357464	      4.29789721	    -11.23314255	    -10.11603166	     44.86719616	     89.95437384	      0.00000000	      0.00000000	    -12.55624355	      5.66406212	     14.42177731	     21.27327467	     89.95437384	      0.00000000	      0.00000000
      0.80000000	     -4.56925917	     -1.91306371	     -3.35446297	     -0.75330111	      0.87737513	     -1.42807259	     -6.11567560	      1.98989663	     -8.60612698	    -25.90300242	     -0.45209268	      9.07922564	      6.83567338	     -6.44447655	     32.76636832	      4.72211157	     13.02955930	    -27.49791911	     -0.47992923	      2.87713234	      9.38887678	      5.22595737	     -1.06786190	      0.34682874	      5.93791244	      3.63349692	    -11.15556013	    -10.05754329	     44.70355533	     89.95437384	      0.00000000	      0.00000000	    -12.77607193	      5.79401357	     14.41674152	     21.58984427	     89.95437384	      0.00000000	      0.00000000
      0.81000000	     -4.97839999	     -1.56102418	     -3.65188989	     -0.74318165	      0.87668357	     -1.42899725	     -5.06014885	      1.43003622	     -7.72091463	    -28.10300226	     -0.49048992	      7.43253581	      5.40762464	     -6.03238205	     33.10427521	      4.24947719	     12.21543658	    -28.17144804	     -0.49168452	      1.10721350	     10.87606707	      5.05217184	     -0.50544017	     -0.17912668	      5.87751193	      3.75112209	    -10.77519202	    -10.34416387	     43.45754805	     89.95437384	      0.00000000	      0.00000000	    -12.54535262	      5.80933871	     15.09436124	     21.32977183	     89.95437384	      0.00000000	      0.00000000
      0.82000000	     -4.98228738	     -1.37086048	     -3.58694939	     -0.73179576	      0.87660403	     -1.43032713	     -4.69003920	      0.93981285	     -7.77750460	    -29.95205508	     -0.52276198	      5.84663136	      4.80180247	     -5.67783374	     33.04350543	      4.07901335	     12.23871493	    -29.31894663	     -0.51171215	      0.75149761	     10.84651036	      4.82569741	     -0.29347262	     -0.53740204	      5.52528750	      3.53572212	    -10.49075831	    -10.52291264	     42.54125951	     89.95437384	      0.00000000	      0.00000000	    -12.49187278	      5.95111871	     15.12985633	     21.39656193	     89.95437384	      0.00000000	      0.00000000
      0.83000000	     -5.18841493	     -1.08538757	     -3.55233279	     -0.72059837	      0.87643056	     -1.43158042	     -3.80152288	      0.33286785	     -7.95649773	    -32.19041490	     -0.56182873	      3.89942734	      4.19199915	     -5.28709730	     33.15065017	      3.74825462	     12.17083109	    -30.44263565	     -0.53132422	      0.91732551	     11.31016327	      4.59941535	      0.13296783	     -0.98905857	      5.24691693	      3.19722393	    -10.14455663	    -10.93275622	     41.72210439	     89.95437384	      0.00000000	      0.00000000	    -12.34805155	      6.11302451	     15.40422722	     21.36564273	     89.95437384	      0.00000000	      0.00000000
      0.84000000	     -5.04032509	     -1.05705045	     -3.42933184	     -0.70936063	      0.87697865	     -1.43255632	     -3.19036912	     -0.01454965	     -8.38488608	    -34.51730687	     -0.60244065	      1.69217673	      3.59927541	     -4.85315082	     32.68593954	      3.50108178	     11.67724935	    -31.19469636	     -0.54445016	      1.15553753	     11.13253682	      4.41356585	      0.11729755	     -1.20262695	      4.86111367	      2.93994366	     -9.82184282	    -11.21993717	     40.80783489	     89.95437384	      0.00000000	      0.00000000	    -12.12906209	      6.34054757	     15.39564587	     21.43644684	     89.95437384	      0.00000000	      0.00000000
      0.85000000	     -5.19658944	     -0.61109736	     -3.21848948	     -0.69849103	      0.87726635	     -1.43422486	     -1.93924095	     -0.94552788	     -9.10358735	    -37.18691216	     -0.64903406	     -1.43367278	      2.43428896	     -4.09297716	     32.36576605	      2.45493807	     10.53914607	    -31.53688359	     -0.55042245	      1.73816222	     12.30306291	      4.37243410	      0.44860133	     -1.80883636	      4.38782741	      2.60871518	     -9.43109397	    -11.68029508	     39.90971431	     89.95437384	      0.00000000	      0.00000000	    -11.76631860	      6.55380243	     15.86090151	     21.31427753	     89.95437384	      0.00000000	      0.00000000
      0.86000000	     -4.97519737	     -0.45072609	     -3.07969894	     -0.68719358	      0.87819271	     -1.43522254	     -1.20280594	     -1.56691690	     -9.72868896	    -39.48731237	     -0.68918361	     -5.01911303	      1.83049072	     -3.45312178	     31.58634932	      2.03855790	     10.23002571	    -32.02342623	     -0.55891423	      2.52386961	     12.35715703	      4.25557436	      0.36453113	     -2.17868700	      3.94727048	      2.29283475	     -9.10323159	    -11.91214972	     38.95796364	     89.95437384	      0.00000000	      0.00000000	    -11.46502475	      6.85748867	     15.83201593	     21.36444339	     89.95437384	      0.00000000	      0.00000000
